<svg xmlns="http://www.w3.org/2000/svg" version="1.1" xmlns:xlink="http://www.w3.org/1999/xlink" xmlns:svgjs="http://svgjs.dev/svgjs" width="128" height="128" viewBox="0 0 128 128"><g transform="matrix(0.8046875,0,0,0.8046875,12.221578124999994,25.357547172356718)"><svg viewBox="0 0 96 72" data-background-color="#ffffff" preserveAspectRatio="xMidYMid meet" height="96" width="128" xmlns="http://www.w3.org/2000/svg" xmlns:xlink="http://www.w3.org/1999/xlink"><g id="tight-bounds" transform="matrix(1,0,0,1,0.25950000000000273,0.016266713143252787)"><svg viewBox="0 0 95.481 71.9674665737135" height="71.9674665737135" width="95.481"><g><svg viewBox="0 0 95.481 71.9674665737135" height="71.9674665737135" width="95.481"><g><svg viewBox="0 0 95.481 71.9674665737135" height="71.9674665737135" width="95.481"><g id="textblocktransform"><svg viewBox="0 0 95.481 71.9674665737135" height="71.9674665737135" width="95.481" id="textblock"><g><svg viewBox="0 0 95.481 71.9674665737135" height="71.9674665737135" width="95.481"><g><svg viewBox="0 0 95.481 71.9674665737135" height="71.9674665737135" width="95.481"><g><svg xmlns="http://www.w3.org/2000/svg" xmlns:xlink="http://www.w3.org/1999/xlink" version="1.1" x="0" y="0" viewBox="6.236184014545441 17 87.56381598545455 66" style="enable-background:new 0 0 100 100;" xml:space="preserve" height="71.9674665737135" width="95.481" class="icon-icon-0" data-fill-palette-color="accent" id="icon-0"><path d="M85.8 58.6V54C85.8 48.2 84.4 42.6 82 37.7 84 35.8 85.4 33.2 85.7 30.3 90.4 28.7 93.8 24.2 93.8 19 93.8 17.9 92.9 17 91.8 17H60.8C59.4 17 58 17.3 56.7 17.9 54.1 17.3 51.5 17 48.8 17 28.4 17 11.8 33.6 11.8 54V58.6L6.4 70.8C6.1 71.5 6.2 72.4 6.8 73 7.3 73.6 8.2 73.8 8.9 73.5 21.3 69.3 36.9 70.6 46.8 76.7 48 77.4 49.3 78.1 50.9 78.8 57 81.6 64.2 83 71.4 83S85.8 81.6 91.9 78.8L92.1 78.7C92.3 78.6 92.4 78.6 92.6 78.5 93.6 78 94 76.9 93.6 75.9zM54.8 39V27C54.8 23.7 57.5 21 60.8 21H89.6C88.7 24.5 85.6 27 81.8 27H71.8C70.7 27 69.8 27.9 69.8 29S70.7 31 71.8 31H81.6C80.7 34.5 77.6 37 73.8 37H63.8C62.7 37 61.8 37.9 61.8 39S62.7 41 63.8 41H73.5C72.6 44.4 69.5 47 65.8 47H43C43.9 43.5 47 41 50.8 41H52.8C53.9 41 54.8 40.1 54.8 39M15.8 54C15.8 35.8 30.6 21 48.8 21 50.1 21 51.4 21.1 52.6 21.2 51.4 22.8 50.8 24.8 50.8 27V37C44.2 37 38.8 42.4 38.8 49 38.8 50.1 39.7 51 40.8 51H65.8C72 51 77.1 46.3 77.7 40.3 78 40.2 78.3 40.1 78.6 39.9 80.6 44.2 81.7 48.9 81.7 53.9V56.9H15.7V54zM52.5 75.2C51.1 74.5 49.9 73.9 48.9 73.3 42.1 69.1 33.3 67 24.4 67 20.2 67 15.9 67.5 11.8 68.5L15.1 61H82.5L89 75.7C78 80.2 63.2 80 52.5 75.2" fill="#283132" data-fill-palette-color="accent"></path></svg></g></svg></g></svg></g></svg></g></svg></g></svg></g><defs></defs></svg><rect width="95.481" height="71.9674665737135" fill="none" stroke="none" visibility="hidden"></rect></g></svg></g></svg>